<mxfile host="Electron" modified="2024-07-05T08:47:52.462Z" agent="Mozilla/5.0 (Windows NT 10.0; Win64; x64) AppleWebKit/537.36 (KHTML, like Gecko) draw.io/24.1.0 Chrome/120.0.6099.109 Electron/28.1.0 Safari/537.36" etag="iXf_5x9FO4cV1UpSQjCe" version="24.1.0" type="device">
  <diagram id="C5RBs43oDa-KdzZeNtuy" name="Page-1">
    <mxGraphModel dx="1674" dy="836" grid="1" gridSize="10" guides="1" tooltips="1" connect="1" arrows="1" fold="1" page="1" pageScale="1" pageWidth="700" pageHeight="1000" math="0" shadow="0">
      <root>
        <mxCell id="WIyWlLk6GJQsqaUBKTNV-0" />
        <mxCell id="WIyWlLk6GJQsqaUBKTNV-1" parent="WIyWlLk6GJQsqaUBKTNV-0" />
        <mxCell id="eBe9NrjVwhEct2kou5ef-25" style="edgeStyle=orthogonalEdgeStyle;rounded=0;orthogonalLoop=1;jettySize=auto;html=1;exitX=0.75;exitY=0;exitDx=0;exitDy=0;entryX=0;entryY=0.25;entryDx=0;entryDy=0;startArrow=classic;startFill=0;" parent="WIyWlLk6GJQsqaUBKTNV-1" source="wlzenyJbIIAM9l0T2x9z-0" target="eBe9NrjVwhEct2kou5ef-16" edge="1">
          <mxGeometry relative="1" as="geometry" />
        </mxCell>
        <mxCell id="eBe9NrjVwhEct2kou5ef-26" style="edgeStyle=orthogonalEdgeStyle;rounded=0;orthogonalLoop=1;jettySize=auto;html=1;exitX=1;exitY=0.5;exitDx=0;exitDy=0;entryX=0;entryY=0.5;entryDx=0;entryDy=0;startArrow=classicThin;startFill=0;" parent="WIyWlLk6GJQsqaUBKTNV-1" source="wlzenyJbIIAM9l0T2x9z-0" target="wlzenyJbIIAM9l0T2x9z-10" edge="1">
          <mxGeometry relative="1" as="geometry" />
        </mxCell>
        <mxCell id="eBe9NrjVwhEct2kou5ef-47" style="edgeStyle=orthogonalEdgeStyle;rounded=0;orthogonalLoop=1;jettySize=auto;html=1;exitX=0.5;exitY=1;exitDx=0;exitDy=0;entryX=0.75;entryY=1;entryDx=0;entryDy=0;startArrow=blockThin;startFill=1;" parent="WIyWlLk6GJQsqaUBKTNV-1" source="wlzenyJbIIAM9l0T2x9z-0" target="eBe9NrjVwhEct2kou5ef-30" edge="1">
          <mxGeometry relative="1" as="geometry">
            <Array as="points">
              <mxPoint x="210" y="740" />
              <mxPoint x="1030" y="740" />
            </Array>
          </mxGeometry>
        </mxCell>
        <mxCell id="wlzenyJbIIAM9l0T2x9z-0" value="User" style="swimlane;whiteSpace=wrap;html=1;" parent="WIyWlLk6GJQsqaUBKTNV-1" vertex="1">
          <mxGeometry x="110" y="190" width="200" height="395" as="geometry" />
        </mxCell>
        <mxCell id="wlzenyJbIIAM9l0T2x9z-3" value="FullName: NVARCHAR" style="text;html=1;align=left;verticalAlign=middle;whiteSpace=wrap;rounded=0;" parent="wlzenyJbIIAM9l0T2x9z-0" vertex="1">
          <mxGeometry x="10" y="40" width="160" height="30" as="geometry" />
        </mxCell>
        <mxCell id="wlzenyJbIIAM9l0T2x9z-4" value="Email: VARCHAR" style="text;html=1;align=left;verticalAlign=middle;whiteSpace=wrap;rounded=0;" parent="wlzenyJbIIAM9l0T2x9z-0" vertex="1">
          <mxGeometry x="10" y="70" width="160" height="30" as="geometry" />
        </mxCell>
        <mxCell id="wlzenyJbIIAM9l0T2x9z-5" value="Role: Boolean" style="text;html=1;align=left;verticalAlign=middle;whiteSpace=wrap;rounded=0;" parent="wlzenyJbIIAM9l0T2x9z-0" vertex="1">
          <mxGeometry x="10" y="100" width="160" height="30" as="geometry" />
        </mxCell>
        <mxCell id="wlzenyJbIIAM9l0T2x9z-6" value="Password: VARCHAR" style="text;html=1;align=left;verticalAlign=middle;whiteSpace=wrap;rounded=0;" parent="wlzenyJbIIAM9l0T2x9z-0" vertex="1">
          <mxGeometry x="10" y="130" width="160" height="30" as="geometry" />
        </mxCell>
        <mxCell id="wlzenyJbIIAM9l0T2x9z-7" value="MenuID: INT" style="text;html=1;align=left;verticalAlign=middle;whiteSpace=wrap;rounded=0;" parent="wlzenyJbIIAM9l0T2x9z-0" vertex="1">
          <mxGeometry x="10" y="160" width="160" height="30" as="geometry" />
        </mxCell>
        <mxCell id="wlzenyJbIIAM9l0T2x9z-8" value="OrderID: INT" style="text;html=1;align=left;verticalAlign=middle;whiteSpace=wrap;rounded=0;" parent="wlzenyJbIIAM9l0T2x9z-0" vertex="1">
          <mxGeometry x="10" y="190" width="160" height="30" as="geometry" />
        </mxCell>
        <mxCell id="wlzenyJbIIAM9l0T2x9z-9" value="UserStatus: Boolean" style="text;html=1;align=left;verticalAlign=middle;whiteSpace=wrap;rounded=0;" parent="wlzenyJbIIAM9l0T2x9z-0" vertex="1">
          <mxGeometry x="10" y="220" width="160" height="30" as="geometry" />
        </mxCell>
        <mxCell id="wlzenyJbIIAM9l0T2x9z-18" value="UserID: INT" style="text;html=1;align=left;verticalAlign=middle;whiteSpace=wrap;rounded=0;" parent="wlzenyJbIIAM9l0T2x9z-0" vertex="1">
          <mxGeometry x="10" y="250" width="160" height="30" as="geometry" />
        </mxCell>
        <mxCell id="iK7r8L6nQ7AS_cM26z_x-1" value="UserName: VARCHAR" style="text;html=1;align=left;verticalAlign=middle;whiteSpace=wrap;rounded=0;" parent="wlzenyJbIIAM9l0T2x9z-0" vertex="1">
          <mxGeometry x="10" y="280" width="160" height="30" as="geometry" />
        </mxCell>
        <mxCell id="jplNvjDEhCDdt2a2HbCQ-0" value="CartID: INT" style="text;html=1;align=left;verticalAlign=middle;whiteSpace=wrap;rounded=0;" parent="wlzenyJbIIAM9l0T2x9z-0" vertex="1">
          <mxGeometry x="10" y="310" width="160" height="30" as="geometry" />
        </mxCell>
        <mxCell id="eBe9NrjVwhEct2kou5ef-28" style="edgeStyle=orthogonalEdgeStyle;rounded=0;orthogonalLoop=1;jettySize=auto;html=1;exitX=1;exitY=0.5;exitDx=0;exitDy=0;entryX=0;entryY=0.5;entryDx=0;entryDy=0;startArrow=classicThin;startFill=0;" parent="WIyWlLk6GJQsqaUBKTNV-1" source="wlzenyJbIIAM9l0T2x9z-10" target="eBe9NrjVwhEct2kou5ef-0" edge="1">
          <mxGeometry relative="1" as="geometry" />
        </mxCell>
        <mxCell id="wlzenyJbIIAM9l0T2x9z-10" value="Menu" style="swimlane;whiteSpace=wrap;html=1;" parent="WIyWlLk6GJQsqaUBKTNV-1" vertex="1">
          <mxGeometry x="440" y="470" width="200" height="220" as="geometry" />
        </mxCell>
        <mxCell id="wlzenyJbIIAM9l0T2x9z-11" value="MenuID: INT" style="text;html=1;align=left;verticalAlign=middle;whiteSpace=wrap;rounded=0;" parent="wlzenyJbIIAM9l0T2x9z-10" vertex="1">
          <mxGeometry x="10" y="40" width="160" height="30" as="geometry" />
        </mxCell>
        <mxCell id="wlzenyJbIIAM9l0T2x9z-12" value="FoodID: INT" style="text;html=1;align=left;verticalAlign=middle;whiteSpace=wrap;rounded=0;" parent="wlzenyJbIIAM9l0T2x9z-10" vertex="1">
          <mxGeometry x="10" y="95" width="160" height="30" as="geometry" />
        </mxCell>
        <mxCell id="wlzenyJbIIAM9l0T2x9z-13" value="MenuDate: NVARCHAR" style="text;html=1;align=left;verticalAlign=middle;whiteSpace=wrap;rounded=0;" parent="wlzenyJbIIAM9l0T2x9z-10" vertex="1">
          <mxGeometry x="10" y="120" width="160" height="30" as="geometry" />
        </mxCell>
        <mxCell id="wlzenyJbIIAM9l0T2x9z-14" value="UserID: INT" style="text;html=1;align=left;verticalAlign=middle;whiteSpace=wrap;rounded=0;" parent="wlzenyJbIIAM9l0T2x9z-10" vertex="1">
          <mxGeometry x="10" y="150" width="160" height="30" as="geometry" />
        </mxCell>
        <mxCell id="2pTqiuVihy7p_YKLxnr8-0" value="MenuName: NVARCHAR" style="text;html=1;align=left;verticalAlign=middle;whiteSpace=wrap;rounded=0;" parent="wlzenyJbIIAM9l0T2x9z-10" vertex="1">
          <mxGeometry x="10" y="70" width="160" height="30" as="geometry" />
        </mxCell>
        <mxCell id="2pTqiuVihy7p_YKLxnr8-1" value="MenuStatus: boolean" style="text;html=1;align=left;verticalAlign=middle;whiteSpace=wrap;rounded=0;" parent="wlzenyJbIIAM9l0T2x9z-10" vertex="1">
          <mxGeometry x="10" y="170" width="160" height="30" as="geometry" />
        </mxCell>
        <mxCell id="eBe9NrjVwhEct2kou5ef-29" style="edgeStyle=orthogonalEdgeStyle;rounded=0;orthogonalLoop=1;jettySize=auto;html=1;exitX=1;exitY=0.5;exitDx=0;exitDy=0;entryX=0;entryY=0.5;entryDx=0;entryDy=0;startArrow=classicThin;startFill=0;" parent="WIyWlLk6GJQsqaUBKTNV-1" source="eBe9NrjVwhEct2kou5ef-0" target="eBe9NrjVwhEct2kou5ef-9" edge="1">
          <mxGeometry relative="1" as="geometry" />
        </mxCell>
        <mxCell id="eBe9NrjVwhEct2kou5ef-0" value="Food" style="swimlane;whiteSpace=wrap;html=1;" parent="WIyWlLk6GJQsqaUBKTNV-1" vertex="1">
          <mxGeometry x="840" y="90" width="200" height="260" as="geometry" />
        </mxCell>
        <mxCell id="eBe9NrjVwhEct2kou5ef-1" value="FoodID: INT" style="text;html=1;align=left;verticalAlign=middle;whiteSpace=wrap;rounded=0;" parent="eBe9NrjVwhEct2kou5ef-0" vertex="1">
          <mxGeometry x="10" y="40" width="160" height="30" as="geometry" />
        </mxCell>
        <mxCell id="eBe9NrjVwhEct2kou5ef-2" value="FoodName: NVARCHAR" style="text;html=1;align=left;verticalAlign=middle;whiteSpace=wrap;rounded=0;" parent="eBe9NrjVwhEct2kou5ef-0" vertex="1">
          <mxGeometry x="10" y="70" width="160" height="30" as="geometry" />
        </mxCell>
        <mxCell id="eBe9NrjVwhEct2kou5ef-3" value="FoodStatus: Boolean" style="text;html=1;align=left;verticalAlign=middle;whiteSpace=wrap;rounded=0;" parent="eBe9NrjVwhEct2kou5ef-0" vertex="1">
          <mxGeometry x="10" y="100" width="160" height="30" as="geometry" />
        </mxCell>
        <mxCell id="eBe9NrjVwhEct2kou5ef-4" value="ProductID: INT" style="text;html=1;align=left;verticalAlign=middle;whiteSpace=wrap;rounded=0;" parent="eBe9NrjVwhEct2kou5ef-0" vertex="1">
          <mxGeometry x="10" y="130" width="160" height="30" as="geometry" />
        </mxCell>
        <mxCell id="eBe9NrjVwhEct2kou5ef-5" value="FoodStep: VARCHAR" style="text;html=1;align=left;verticalAlign=middle;whiteSpace=wrap;rounded=0;" parent="eBe9NrjVwhEct2kou5ef-0" vertex="1">
          <mxGeometry x="10" y="160" width="160" height="30" as="geometry" />
        </mxCell>
        <mxCell id="eBe9NrjVwhEct2kou5ef-15" value="FoodPrice: INT" style="text;html=1;align=left;verticalAlign=middle;whiteSpace=wrap;rounded=0;" parent="eBe9NrjVwhEct2kou5ef-0" vertex="1">
          <mxGeometry x="10" y="190" width="160" height="30" as="geometry" />
        </mxCell>
        <mxCell id="iK7r8L6nQ7AS_cM26z_x-0" value="FoodImage: VARCHAR" style="text;html=1;align=left;verticalAlign=middle;whiteSpace=wrap;rounded=0;" parent="eBe9NrjVwhEct2kou5ef-0" vertex="1">
          <mxGeometry x="10" y="220" width="160" height="30" as="geometry" />
        </mxCell>
        <mxCell id="eBe9NrjVwhEct2kou5ef-9" value="Product" style="swimlane;whiteSpace=wrap;html=1;" parent="WIyWlLk6GJQsqaUBKTNV-1" vertex="1">
          <mxGeometry x="1170" y="70" width="200" height="200" as="geometry" />
        </mxCell>
        <mxCell id="eBe9NrjVwhEct2kou5ef-10" value="ProductID: INT" style="text;html=1;align=left;verticalAlign=middle;whiteSpace=wrap;rounded=0;" parent="eBe9NrjVwhEct2kou5ef-9" vertex="1">
          <mxGeometry x="10" y="40" width="160" height="30" as="geometry" />
        </mxCell>
        <mxCell id="eBe9NrjVwhEct2kou5ef-11" value="ProductName: NVARCHAR" style="text;html=1;align=left;verticalAlign=middle;whiteSpace=wrap;rounded=0;" parent="eBe9NrjVwhEct2kou5ef-9" vertex="1">
          <mxGeometry x="10" y="70" width="160" height="30" as="geometry" />
        </mxCell>
        <mxCell id="eBe9NrjVwhEct2kou5ef-12" value="ProductStatus: Boolean" style="text;html=1;align=left;verticalAlign=middle;whiteSpace=wrap;rounded=0;" parent="eBe9NrjVwhEct2kou5ef-9" vertex="1">
          <mxGeometry x="10" y="100" width="160" height="30" as="geometry" />
        </mxCell>
        <mxCell id="jplNvjDEhCDdt2a2HbCQ-1" value="ProductPrice: INT" style="text;html=1;align=left;verticalAlign=middle;whiteSpace=wrap;rounded=0;" parent="eBe9NrjVwhEct2kou5ef-9" vertex="1">
          <mxGeometry x="10" y="130" width="160" height="30" as="geometry" />
        </mxCell>
        <mxCell id="jplNvjDEhCDdt2a2HbCQ-2" value="ProductImage: VARCHAR" style="text;html=1;align=left;verticalAlign=middle;whiteSpace=wrap;rounded=0;" parent="eBe9NrjVwhEct2kou5ef-9" vertex="1">
          <mxGeometry x="10" y="160" width="160" height="30" as="geometry" />
        </mxCell>
        <mxCell id="eBe9NrjVwhEct2kou5ef-27" style="edgeStyle=orthogonalEdgeStyle;rounded=0;orthogonalLoop=1;jettySize=auto;html=1;exitX=1;exitY=0.25;exitDx=0;exitDy=0;startArrow=classic;startFill=0;" parent="WIyWlLk6GJQsqaUBKTNV-1" source="eBe9NrjVwhEct2kou5ef-16" edge="1">
          <mxGeometry relative="1" as="geometry">
            <mxPoint x="840" y="175.30769230769238" as="targetPoint" />
          </mxGeometry>
        </mxCell>
        <mxCell id="eBe9NrjVwhEct2kou5ef-16" value="Order" style="swimlane;whiteSpace=wrap;html=1;" parent="WIyWlLk6GJQsqaUBKTNV-1" vertex="1">
          <mxGeometry x="440" y="120" width="200" height="220" as="geometry" />
        </mxCell>
        <mxCell id="eBe9NrjVwhEct2kou5ef-17" value="OrderID: INT" style="text;html=1;align=left;verticalAlign=middle;whiteSpace=wrap;rounded=0;" parent="eBe9NrjVwhEct2kou5ef-16" vertex="1">
          <mxGeometry x="10" y="40" width="160" height="30" as="geometry" />
        </mxCell>
        <mxCell id="eBe9NrjVwhEct2kou5ef-18" value="OrderDate: Date" style="text;html=1;align=left;verticalAlign=middle;whiteSpace=wrap;rounded=0;" parent="eBe9NrjVwhEct2kou5ef-16" vertex="1">
          <mxGeometry x="10" y="70" width="160" height="30" as="geometry" />
        </mxCell>
        <mxCell id="eBe9NrjVwhEct2kou5ef-19" value="OrderStatus: Byte" style="text;html=1;align=left;verticalAlign=middle;whiteSpace=wrap;rounded=0;" parent="eBe9NrjVwhEct2kou5ef-16" vertex="1">
          <mxGeometry x="10" y="100" width="160" height="30" as="geometry" />
        </mxCell>
        <mxCell id="eBe9NrjVwhEct2kou5ef-20" value="OrderTotalPrice: INT" style="text;html=1;align=left;verticalAlign=middle;whiteSpace=wrap;rounded=0;" parent="eBe9NrjVwhEct2kou5ef-16" vertex="1">
          <mxGeometry x="10" y="130" width="160" height="30" as="geometry" />
        </mxCell>
        <mxCell id="eBe9NrjVwhEct2kou5ef-21" value="UserID: INT" style="text;html=1;align=left;verticalAlign=middle;whiteSpace=wrap;rounded=0;" parent="eBe9NrjVwhEct2kou5ef-16" vertex="1">
          <mxGeometry x="10" y="160" width="160" height="30" as="geometry" />
        </mxCell>
        <mxCell id="eBe9NrjVwhEct2kou5ef-22" value="FoodPrice: INT" style="text;html=1;align=left;verticalAlign=middle;whiteSpace=wrap;rounded=0;" parent="eBe9NrjVwhEct2kou5ef-16" vertex="1">
          <mxGeometry x="10" y="190" width="160" height="30" as="geometry" />
        </mxCell>
        <mxCell id="eBe9NrjVwhEct2kou5ef-48" style="edgeStyle=orthogonalEdgeStyle;rounded=0;orthogonalLoop=1;jettySize=auto;html=1;exitX=0.5;exitY=0;exitDx=0;exitDy=0;startArrow=blockThin;startFill=1;" parent="WIyWlLk6GJQsqaUBKTNV-1" source="eBe9NrjVwhEct2kou5ef-30" edge="1">
          <mxGeometry relative="1" as="geometry">
            <mxPoint x="930" y="350" as="targetPoint" />
          </mxGeometry>
        </mxCell>
        <mxCell id="eBe9NrjVwhEct2kou5ef-30" value="Cart" style="swimlane;whiteSpace=wrap;html=1;" parent="WIyWlLk6GJQsqaUBKTNV-1" vertex="1">
          <mxGeometry x="880" y="410" width="200" height="230" as="geometry" />
        </mxCell>
        <mxCell id="eBe9NrjVwhEct2kou5ef-31" value="CartID: INT" style="text;html=1;align=left;verticalAlign=middle;whiteSpace=wrap;rounded=0;" parent="eBe9NrjVwhEct2kou5ef-30" vertex="1">
          <mxGeometry x="10" y="40" width="160" height="30" as="geometry" />
        </mxCell>
        <mxCell id="eBe9NrjVwhEct2kou5ef-32" value="UserID: INT" style="text;html=1;align=left;verticalAlign=middle;whiteSpace=wrap;rounded=0;" parent="eBe9NrjVwhEct2kou5ef-30" vertex="1">
          <mxGeometry x="10" y="70" width="160" height="30" as="geometry" />
        </mxCell>
        <mxCell id="eBe9NrjVwhEct2kou5ef-33" value="FoodID: INT" style="text;html=1;align=left;verticalAlign=middle;whiteSpace=wrap;rounded=0;" parent="eBe9NrjVwhEct2kou5ef-30" vertex="1">
          <mxGeometry x="10" y="100" width="160" height="30" as="geometry" />
        </mxCell>
        <mxCell id="nrRDrl95SVB0rjQ9r-i_-12" value="ProductID: INT" style="text;html=1;align=left;verticalAlign=middle;whiteSpace=wrap;rounded=0;" parent="eBe9NrjVwhEct2kou5ef-30" vertex="1">
          <mxGeometry x="10" y="160" width="160" height="30" as="geometry" />
        </mxCell>
        <mxCell id="jplNvjDEhCDdt2a2HbCQ-3" value="FoodPrice: INT" style="text;html=1;align=left;verticalAlign=middle;whiteSpace=wrap;rounded=0;" parent="eBe9NrjVwhEct2kou5ef-30" vertex="1">
          <mxGeometry x="10" y="130" width="160" height="30" as="geometry" />
        </mxCell>
        <mxCell id="jplNvjDEhCDdt2a2HbCQ-4" value="ProductPrice: INT" style="text;html=1;align=left;verticalAlign=middle;whiteSpace=wrap;rounded=0;" parent="eBe9NrjVwhEct2kou5ef-30" vertex="1">
          <mxGeometry x="10" y="190" width="160" height="30" as="geometry" />
        </mxCell>
      </root>
    </mxGraphModel>
  </diagram>
</mxfile>
